<?xml version="1.0" encoding="utf-8"?>
<!-- Generator: Adobe Illustrator 26.0.3, SVG Export Plug-In . SVG Version: 6.00 Build 0)  -->
<svg version="1.1" id="Ebene_1" xmlns="http://www.w3.org/2000/svg" xmlns:xlink="http://www.w3.org/1999/xlink" x="0px" y="0px"
	 viewBox="0 0 213.5 121.2" style="enable-background:new 0 0 213.5 121.2;" xml:space="preserve">
<style type="text/css">
	.st0{fill:#E30613;}
	.st1{fill:#FCC046;}
	.st2{fill:#312783;}
	.st3{fill:none;stroke:#000000;stroke-width:1.000000e-02;stroke-miterlimit:10;}
	.st4{fill:#0082B9;}
</style>
<path class="st0" d="M39.4,53.1c-13.5-1.4-24.7-11.2-27.9-24.4h-0.1C9.6,45.4,21.7,60.3,38.4,62C55,63.7,69.9,51.7,71.7,35h-0.1
	C65.8,47.3,52.9,54.5,39.4,53.1z"/>
<path class="st1" d="M55.1,29.8c6.8,11.7,5.6,26.5-3.1,36.9v0.1c14.5-8.4,19.3-27,10.9-41.5S35.9,6,21.4,14.4v0.1
	C34.7,11.9,48.2,18.1,55.1,29.8z"/>
<path class="st0" d="M23.7,47.1c-3-2.2-5.8-5.3-7.9-8.4c-0.2,4,0.4,8,1.8,11.7c2.3,2.9,5.4,5.6,8.5,7.5C24.8,54.5,24,50.8,23.7,47.1
	z"/>
<path class="st2" d="M87.8,71.3V47.5h31.1l2.6-6.3H87.9V16.3H132l2.6-6.3H95c-0.4,0-0.8,0.1-1.2,0.1H81.6V16c0,0.2,0.1,0.3,0.1,0.5
	v54c0,0.2,0,0.3-0.1,0.4v6.6h24.7l2.8-6.3H87.8V71.3z"/>
<g>
	<path class="st2" d="M11.3,93.7V82.5h6.5v0.9h-5.5v4.2h5.1v0.9h-5.1v4.3h5.6v0.9H11.3z"/>
	<path class="st2" d="M20.7,83.9c-0.4,0-0.7-0.3-0.7-0.7c0-0.4,0.3-0.7,0.7-0.7c0.4,0,0.7,0.3,0.7,0.7c0,0.2-0.1,0.3-0.2,0.5
		C21,83.8,20.9,83.9,20.7,83.9z M20.2,93.7v-8.4h1v8.4H20.2z"/>
	<path class="st2" d="M24.7,88.5v5.2h-1v-8.4h0.9v1.3h0.1c0.2-0.4,0.5-0.8,0.9-1c0.4-0.3,1-0.4,1.5-0.4c1,0,2,0.5,2.5,1.4
		c0.3,0.5,0.4,1.1,0.4,1.7v5.4h-1v-5.4c0-0.6-0.2-1.2-0.6-1.6c-0.4-0.4-0.9-0.6-1.5-0.6c-0.4,0-0.8,0.1-1.2,0.3
		c-0.3,0.2-0.6,0.5-0.8,0.8C24.7,87.6,24.6,88.1,24.7,88.5z"/>
	<path class="st2" d="M33.6,88.5v5.2h-1V82.5h1v4.1h0.1c0.2-0.4,0.5-0.8,0.9-1c0.5-0.3,1-0.4,1.6-0.4c0.5,0,1,0.1,1.5,0.3
		c0.4,0.2,0.8,0.6,1,1c0.2,0.5,0.4,1.1,0.4,1.7v5.4h-1v-5.4c0-0.6-0.2-1.2-0.6-1.6C37.1,86.2,36.5,86,36,86c-0.4,0-0.8,0.1-1.2,0.3
		c-0.3,0.2-0.6,0.5-0.8,0.8C33.7,87.5,33.6,88,33.6,88.5z"/>
	<path class="st2" d="M44.9,93.9c-0.7,0-1.4-0.2-2-0.5c-0.6-0.4-1-0.9-1.3-1.5c-0.7-1.4-0.7-3,0-4.4c0.2-0.6,0.7-1.2,1.3-1.5
		c0.5-0.4,1.2-0.6,1.9-0.6c0.4,0,0.9,0.1,1.3,0.2c0.4,0.1,0.8,0.4,1.1,0.8c0.3,0.4,0.6,0.8,0.8,1.3c0.2,0.6,0.3,1.2,0.3,1.8v0.3
		h-6.5v-0.9h5.5c0-0.5-0.1-1-0.3-1.5c-0.2-0.4-0.5-0.8-0.9-1c-0.4-0.2-0.8-0.4-1.3-0.4c-0.5,0-1,0.1-1.4,0.4
		c-0.4,0.3-0.7,0.7-0.9,1.1c-0.2,0.5-0.3,1-0.3,1.5v0.5c0,0.6,0.1,1.2,0.3,1.7c0.2,0.5,0.6,0.9,1,1.2c0.4,0.3,1,0.4,1.5,0.4
		c0.3,0,0.7-0.1,1-0.2c0.3-0.1,0.6-0.3,0.8-0.5c0.2-0.2,0.4-0.4,0.5-0.7l0.9,0.3c-0.1,0.4-0.3,0.7-0.6,1c-0.3,0.3-0.7,0.6-1.1,0.7
		C46,93.7,45.4,93.8,44.9,93.9z"/>
	<path class="st2" d="M50.9,83.9c-0.4,0-0.7-0.3-0.7-0.7c0-0.4,0.3-0.7,0.7-0.7s0.7,0.3,0.7,0.7c0,0.2-0.1,0.3-0.2,0.5
		C51.3,83.8,51.1,83.9,50.9,83.9z M50.5,93.7v-8.4h1v8.4H50.5z"/>
	<path class="st2" d="M57.3,85.3v0.8h-4v-0.8H57.3z M54.5,83.3h1v8.2c0,0.3,0.1,0.6,0.2,0.8c0.1,0.2,0.3,0.3,0.5,0.4
		c0.2,0.1,0.4,0.1,0.6,0.1h0.3c0.1,0,0.2,0,0.2-0.1l0.2,0.9c-0.1,0-0.2,0.1-0.3,0.1h-0.5c-0.3,0-0.7-0.1-1-0.2
		c-0.3-0.2-0.6-0.4-0.8-0.7c-0.2-0.3-0.3-0.7-0.3-1.1L54.5,83.3L54.5,83.3z"/>
	<path class="st2" d="M60.6,82.5v11.2h-1V82.5H60.6z"/>
	<path class="st2" d="M63.7,83.9c-0.4,0-0.7-0.3-0.7-0.7s0.3-0.7,0.7-0.7c0.4,0,0.7,0.3,0.7,0.7c0,0.2-0.1,0.3-0.2,0.5
		C64.1,83.8,63.9,83.9,63.7,83.9z M63.2,93.7v-8.4h1v8.4H63.2z"/>
	<path class="st2" d="M70,93.9c-0.7,0-1.4-0.2-2-0.6c-0.6-0.4-1-0.9-1.3-1.5c-0.7-1.4-0.7-3,0-4.4c0.2-0.6,0.7-1.2,1.3-1.5
		c0.6-0.3,1.2-0.6,1.9-0.6c0.5,0,1,0.1,1.5,0.3c0.4,0.2,0.8,0.5,1.1,0.9c0.3,0.4,0.5,0.9,0.6,1.4h-1c-0.1-0.5-0.3-0.9-0.7-1.2
		c-0.4-0.3-1-0.5-1.5-0.5c-0.5,0-1,0.1-1.4,0.4c-0.4,0.3-0.7,0.7-1,1.2c-0.3,0.6-0.4,1.2-0.3,1.8c0,0.6,0.1,1.2,0.3,1.8
		c0.2,0.5,0.5,0.9,0.9,1.2c0.4,0.3,0.9,0.4,1.4,0.4c0.3,0,0.7-0.1,1-0.2c0.3-0.1,0.6-0.3,0.8-0.6c0.2-0.3,0.3-0.6,0.4-0.9h1
		c-0.1,0.5-0.3,0.9-0.5,1.3c-0.3,0.4-0.7,0.7-1.1,0.9C71,93.8,70.5,93.9,70,93.9z"/>
	<path class="st2" d="M76.2,88.5v5.2h-1V82.5h1v4.1h0.1c0.2-0.4,0.5-0.8,0.9-1c0.5-0.3,1-0.4,1.6-0.4c0.5,0,1,0.1,1.5,0.3
		c0.4,0.2,0.8,0.6,1,1c0.2,0.5,0.4,1.1,0.4,1.7v5.4h-1v-5.4c0-0.6-0.2-1.2-0.6-1.6c-0.4-0.4-0.9-0.6-1.5-0.6c-0.4,0-0.8,0.1-1.2,0.3
		c-0.3,0.2-0.6,0.5-0.8,0.8C76.3,87.5,76.2,88,76.2,88.5z"/>
	<path class="st2" d="M87.6,93.9c-0.7,0-1.4-0.2-2-0.5c-0.6-0.4-1-0.9-1.3-1.5c-0.7-1.4-0.7-3,0-4.4c0.2-0.6,0.7-1.2,1.3-1.5
		c0.5-0.4,1.2-0.6,1.9-0.6c0.4,0,0.9,0.1,1.3,0.2c0.4,0.1,0.8,0.4,1.1,0.8c0.3,0.4,0.6,0.8,0.8,1.3c0.2,0.6,0.3,1.2,0.3,1.8v0.3
		h-6.5v-0.9H90c0-0.5-0.1-1-0.3-1.5c-0.2-0.4-0.5-0.8-0.9-1c-0.4-0.2-0.8-0.4-1.3-0.4c-0.5,0-1,0.1-1.4,0.4
		c-0.4,0.3-0.7,0.7-0.9,1.1c-0.2,0.5-0.3,1-0.3,1.5v0.5c0,0.6,0.1,1.2,0.3,1.7c0.2,0.5,0.6,0.9,1,1.2c0.4,0.3,1,0.4,1.5,0.4
		c0.3,0,0.7-0.1,1-0.2c0.3-0.1,0.6-0.3,0.8-0.5c0.2-0.2,0.4-0.4,0.5-0.7l0.9,0.3c-0.1,0.4-0.3,0.7-0.6,1c-0.3,0.3-0.7,0.6-1.1,0.7
		C88.7,93.7,88.1,93.8,87.6,93.9z"/>
	<path class="st2" d="M97.7,93.7h-1.1l4.1-11.2h1.1l4.1,11.2h-1.1l-3.5-9.8h-0.1L97.7,93.7z M98.4,89.4h5.5v0.9h-5.5V89.4z"/>
	<path class="st2" d="M108.5,88.5v5.2h-1v-8.4h0.9v1.3h0.1c0.2-0.4,0.5-0.8,0.9-1c1.4-0.8,3.2-0.4,4,1c0.2,0.5,0.4,1.1,0.4,1.7v5.4
		h-1v-5.4c0-0.6-0.2-1.2-0.6-1.6c-0.4-0.4-0.9-0.6-1.5-0.6c-0.4,0-0.8,0.1-1.2,0.3c-0.3,0.2-0.6,0.5-0.8,0.8
		C108.5,87.6,108.4,88.1,108.5,88.5z"/>
	<path class="st2" d="M122,87.2l-0.9,0.3c-0.1-0.3-0.2-0.5-0.4-0.7c-0.2-0.2-0.4-0.4-0.6-0.5c-0.3-0.1-0.7-0.2-1-0.2
		c-0.5,0-1,0.1-1.4,0.4c-0.3,0.2-0.5,0.6-0.5,1c0,0.3,0.1,0.7,0.4,0.9c0.3,0.3,0.8,0.5,1.2,0.5l1.3,0.3c0.6,0.1,1.1,0.4,1.6,0.8
		c0.4,0.4,0.6,0.9,0.5,1.4c0,0.5-0.1,0.9-0.4,1.3c-0.3,0.4-0.7,0.7-1.1,0.9c-0.5,0.2-1.1,0.3-1.6,0.3c-0.7,0-1.4-0.2-2-0.6
		c-0.5-0.4-0.9-1-1-1.6l0.9-0.2c0.1,0.4,0.3,0.8,0.7,1.1c0.4,0.3,0.9,0.4,1.4,0.4c0.5,0,1.1-0.1,1.5-0.4c0.4-0.2,0.6-0.7,0.6-1.1
		c0-0.3-0.1-0.6-0.3-0.9c-0.3-0.2-0.6-0.4-1-0.5l-1.4-0.3c-0.6-0.1-1.1-0.4-1.6-0.8c-0.3-0.4-0.5-0.9-0.5-1.4c0-0.4,0.1-0.9,0.4-1.2
		c0.3-0.3,0.6-0.6,1-0.8c0.5-0.2,1-0.3,1.5-0.3c0.6,0,1.3,0.1,1.8,0.5C121.5,86.2,121.8,86.7,122,87.2z"/>
	<path class="st2" d="M124.2,96.8V85.3h0.9v1.6h0.1c0.2-0.3,0.3-0.5,0.5-0.8c0.2-0.3,0.5-0.5,0.8-0.7c0.4-0.2,0.8-0.3,1.3-0.3
		c0.6,0,1.3,0.2,1.8,0.5c0.5,0.4,0.9,0.9,1.2,1.5c0.3,0.7,0.4,1.5,0.4,2.3c0,0.8-0.1,1.6-0.4,2.3c-0.2,0.6-0.7,1.1-1.2,1.5
		c-0.5,0.4-1.2,0.6-1.8,0.5c-0.5,0-0.9-0.1-1.3-0.3c-0.3-0.2-0.6-0.4-0.8-0.7c-0.2-0.2-0.4-0.5-0.5-0.8h-0.1v4.9H124.2z M125.2,89.5
		c0,0.6,0.1,1.2,0.3,1.8c0.2,0.5,0.5,0.9,0.9,1.2c0.4,0.3,0.9,0.4,1.4,0.4c0.5,0,1-0.2,1.4-0.5c0.4-0.3,0.7-0.7,0.9-1.2
		c0.2-0.6,0.3-1.2,0.3-1.8c0-0.6-0.1-1.2-0.3-1.7c-0.2-0.5-0.5-0.9-0.9-1.2c-0.4-0.3-0.9-0.5-1.4-0.5c-0.5,0-1,0.1-1.4,0.4
		c-0.4,0.3-0.7,0.7-0.9,1.2C125.3,88.2,125.2,88.9,125.2,89.5z"/>
	<path class="st2" d="M133.4,93.7v-8.4h0.9v1.3h0.1c0.2-0.4,0.5-0.8,0.9-1c0.4-0.3,0.9-0.4,1.4-0.4h0.5v1h-0.6
		c-0.4,0-0.8,0.1-1.2,0.3c-0.3,0.2-0.6,0.5-0.8,0.8c-0.2,0.3-0.3,0.7-0.3,1.1v5.4L133.4,93.7L133.4,93.7z"/>
	<path class="st2" d="M142,93.9c-0.7,0-1.4-0.2-2-0.5c-0.6-0.4-1-0.9-1.3-1.5c-0.7-1.4-0.7-3,0-4.4c0.2-0.6,0.7-1.2,1.3-1.5
		c0.6-0.3,1.2-0.6,1.9-0.6c0.4,0,0.9,0.1,1.3,0.2c0.4,0.1,0.8,0.4,1.1,0.8c0.3,0.4,0.6,0.8,0.8,1.3c0.2,0.6,0.3,1.2,0.3,1.8v0.3
		h-6.5v-0.9h5.5c0-0.5-0.1-1-0.3-1.5c-0.2-0.4-0.5-0.8-0.9-1c-0.4-0.2-0.8-0.4-1.3-0.4c-0.5,0-1,0.1-1.4,0.4
		c-0.4,0.3-0.7,0.7-0.9,1.1c-0.2,0.5-0.3,1-0.3,1.5v0.5c0,0.6,0.1,1.2,0.3,1.7c0.2,0.5,0.6,0.9,1,1.2c0.4,0.3,1,0.4,1.5,0.4
		c0.3,0,0.7-0.1,1-0.2c0.3-0.1,0.6-0.3,0.8-0.5c0.2-0.2,0.4-0.4,0.5-0.7l0.9,0.3c-0.1,0.4-0.3,0.7-0.6,1c-0.3,0.3-0.7,0.6-1.1,0.7
		C143.1,93.8,142.6,93.9,142,93.9z"/>
	<path class="st2" d="M150.8,93.9c-0.7,0-1.4-0.2-2-0.6c-0.6-0.4-1-0.9-1.3-1.5c-0.7-1.4-0.7-3,0-4.4c0.3-0.6,0.7-1.2,1.3-1.5
		c0.6-0.3,1.2-0.6,1.9-0.6c0.5,0,1,0.1,1.5,0.3c0.4,0.2,0.8,0.5,1.1,0.9c0.3,0.4,0.5,0.9,0.6,1.4h-1c-0.1-0.5-0.3-0.9-0.7-1.2
		c-0.4-0.3-1-0.5-1.5-0.5c-0.5,0-1,0.1-1.4,0.4c-0.4,0.3-0.7,0.7-1,1.2c-0.3,0.6-0.4,1.2-0.3,1.8c0,0.6,0.1,1.2,0.3,1.8
		c0.2,0.5,0.5,0.9,1,1.2c0.4,0.3,0.9,0.4,1.4,0.4c0.3,0,0.7-0.1,1-0.2c0.3-0.1,0.6-0.3,0.8-0.6c0.2-0.3,0.3-0.6,0.4-0.9h1
		c-0.1,0.5-0.3,0.9-0.5,1.3C152.7,93.4,151.8,93.9,150.8,93.9L150.8,93.9z"/>
	<path class="st2" d="M157,88.5v5.2h-1V82.5h1v4.1h0.1c0.2-0.4,0.5-0.8,0.9-1c0.5-0.3,1-0.4,1.6-0.4c0.5,0,1,0.1,1.5,0.3
		c0.4,0.2,0.8,0.6,1,1c0.2,0.5,0.4,1.1,0.4,1.7v5.4h-1v-5.4c0-0.6-0.2-1.2-0.6-1.6c-0.4-0.4-0.9-0.6-1.5-0.6c-0.4,0-0.8,0.1-1.2,0.3
		c-0.3,0.2-0.6,0.5-0.8,0.8C157.1,87.5,157,88,157,88.5z"/>
	<path class="st2" d="M170.6,87.2l-0.9,0.3c-0.1-0.3-0.2-0.5-0.4-0.7c-0.2-0.2-0.4-0.4-0.6-0.5c-0.3-0.1-0.7-0.2-1-0.2
		c-0.5,0-1,0.1-1.4,0.4c-0.3,0.2-0.5,0.6-0.5,1c0,0.3,0.1,0.7,0.4,0.9c0.4,0.3,0.8,0.4,1.2,0.5l1.3,0.3c0.6,0.1,1.1,0.4,1.6,0.8
		c0.3,0.4,0.5,0.9,0.5,1.4c0,0.5-0.1,0.9-0.4,1.3c-0.3,0.4-0.7,0.7-1.1,0.9c-0.5,0.2-1.1,0.3-1.6,0.3c-0.7,0-1.4-0.2-2-0.6
		c-0.5-0.4-0.9-1-1-1.6l0.9-0.2c0.1,0.4,0.3,0.8,0.7,1.1c0.4,0.3,0.9,0.4,1.4,0.4c0.5,0,1.1-0.1,1.5-0.4c0.4-0.2,0.6-0.7,0.6-1.1
		c0-0.3-0.1-0.6-0.3-0.9c-0.3-0.2-0.6-0.4-1-0.5l-1.4-0.3c-0.6-0.1-1.1-0.4-1.6-0.8c-0.3-0.4-0.5-0.9-0.5-1.4c0-0.4,0.1-0.9,0.4-1.2
		c0.2-0.4,0.6-0.7,1-0.8c0.5-0.2,1-0.3,1.5-0.3c0.6,0,1.3,0.1,1.8,0.5C170.1,86.2,170.4,86.7,170.6,87.2z"/>
	<path class="st2" d="M176.2,85.3v0.8h-4v-0.8H176.2z M173.4,83.3h1v8.2c0,0.3,0.1,0.6,0.2,0.8c0.1,0.2,0.3,0.3,0.5,0.4
		c0.2,0.1,0.4,0.1,0.6,0.1h0.3c0.1,0,0.2,0,0.2-0.1l0.2,0.9c-0.1,0-0.2,0.1-0.3,0.1h-0.5c-0.3,0-0.7-0.1-1-0.2
		c-0.3-0.2-0.6-0.4-0.8-0.7c-0.2-0.3-0.3-0.7-0.3-1.1L173.4,83.3L173.4,83.3z"/>
	<path class="st2" d="M181.7,93.9c-0.7,0-1.4-0.2-2-0.5c-0.6-0.4-1-0.9-1.3-1.5c-0.7-1.4-0.7-3,0-4.4c0.3-0.6,0.7-1.2,1.3-1.5
		c0.5-0.4,1.2-0.6,1.9-0.6c0.4,0,0.9,0.1,1.3,0.2c0.4,0.1,0.8,0.4,1.1,0.8c0.3,0.4,0.6,0.8,0.8,1.3c0.2,0.6,0.3,1.2,0.3,1.8v0.3
		h-6.5v-0.9h5.5c0-0.5-0.1-1-0.3-1.5c-0.2-0.4-0.5-0.8-0.9-1c-0.4-0.2-0.8-0.4-1.3-0.4c-0.5,0-1,0.1-1.4,0.4
		c-0.4,0.3-0.7,0.7-0.9,1.1c-0.2,0.5-0.3,1-0.3,1.5v0.5c0,0.6,0.1,1.2,0.3,1.7c0.2,0.5,0.6,0.9,1,1.2c0.4,0.3,1,0.4,1.5,0.4
		c0.3,0,0.7-0.1,1-0.2c0.3-0.1,0.6-0.3,0.8-0.5c0.2-0.2,0.4-0.4,0.5-0.7l0.9,0.3c-0.1,0.4-0.3,0.7-0.6,1c-0.3,0.3-0.7,0.6-1.1,0.7
		C182.8,93.7,182.3,93.9,181.7,93.9z"/>
	<path class="st2" d="M188.2,82.5v11.2h-1V82.5H188.2z"/>
	<path class="st2" d="M191.7,82.5v11.2h-1V82.5H191.7z"/>
	<path class="st2" d="M197.6,93.9c-0.7,0-1.4-0.2-2-0.5c-0.6-0.4-1-0.9-1.3-1.5c-0.7-1.4-0.7-3,0-4.4c0.2-0.6,0.7-1.2,1.3-1.5
		c0.6-0.3,1.2-0.6,1.9-0.6c0.4,0,0.9,0.1,1.3,0.2c0.4,0.1,0.8,0.4,1.1,0.8c0.3,0.4,0.6,0.8,0.8,1.3c0.2,0.6,0.3,1.2,0.3,1.8v0.3
		h-6.5v-0.9h5.5c0-0.5-0.1-1-0.3-1.5c-0.2-0.4-0.5-0.8-0.9-1c-0.4-0.2-0.8-0.4-1.3-0.4c-0.5,0-1,0.1-1.4,0.4
		c-0.4,0.3-0.7,0.7-0.9,1.1c-0.2,0.5-0.3,1-0.3,1.5v0.5c0,0.6,0.1,1.2,0.3,1.7c0.2,0.5,0.6,0.9,1,1.2c0.4,0.3,1,0.4,1.5,0.4
		c0.3,0,0.7-0.1,1-0.2c0.3-0.1,0.6-0.3,0.8-0.5c0.2-0.2,0.4-0.4,0.5-0.7l0.9,0.3c-0.1,0.4-0.3,0.7-0.6,1c-0.3,0.3-0.7,0.6-1.1,0.7
		C198.7,93.8,198.2,93.9,197.6,93.9z"/>
	<path class="st2" d="M204.1,88.5v5.2h-1v-8.4h0.9v1.3h0.1c0.2-0.4,0.5-0.8,0.9-1c1.4-0.8,3.2-0.4,4,1c0.2,0.5,0.4,1.1,0.4,1.7v5.4
		h-1v-5.4c0-0.6-0.2-1.2-0.6-1.6c-0.4-0.4-0.9-0.6-1.5-0.6c-0.4,0-0.8,0.1-1.2,0.3c-0.3,0.2-0.6,0.5-0.8,0.8
		C204.2,87.6,204.1,88.1,204.1,88.5z"/>
</g>
<g>
	<path class="st2" d="M14.5,101.6v0.8h-4.1v-0.8H14.5z M11.7,110v-9.6c0-0.4,0.1-0.8,0.3-1.1c0.2-0.3,0.5-0.5,0.8-0.7
		c0.3-0.2,0.7-0.2,1.1-0.2c0.3,0,0.5,0,0.6,0.1s0.3,0.1,0.4,0.1l-0.3,0.8c-0.1,0-0.2,0-0.3-0.1h-0.4c-0.4,0-0.7,0.1-1,0.4
		c-0.2,0.3-0.3,0.6-0.3,1v9.4h-0.9V110z"/>
	<path class="st2" d="M21.7,106.8v-5.2h1v8.4h-1v-1.4h-0.1c-0.2,0.4-0.5,0.8-0.9,1.1c-0.5,0.3-1,0.4-1.6,0.4c-0.5,0-1-0.1-1.4-0.4
		c-0.4-0.3-0.7-0.6-1-1c-0.2-0.5-0.4-1.1-0.4-1.7v-5.4h1v5.4c0,0.6,0.2,1.2,0.6,1.6c0.4,0.4,0.9,0.6,1.5,0.6c0.8,0,1.5-0.4,2-1.1
		C21.6,107.7,21.7,107.3,21.7,106.8z M18.2,100.2c-0.2,0-0.3-0.1-0.5-0.2s-0.2-0.3-0.2-0.5c0-0.4,0.3-0.7,0.7-0.7
		c0.4,0,0.7,0.3,0.7,0.7c0,0,0,0,0,0c0,0.2-0.1,0.3-0.2,0.5S18.4,100.2,18.2,100.2z M21,100.2c-0.2,0-0.3-0.1-0.5-0.2
		s-0.2-0.3-0.2-0.5c0-0.4,0.3-0.7,0.7-0.7c0.4,0,0.7,0.3,0.7,0.7c0,0,0,0,0,0c0,0.2-0.1,0.3-0.2,0.5S21.2,100.2,21,100.2z"/>
	<path class="st2" d="M25.3,110v-8.4h0.9v1.3h0.1c0.2-0.4,0.5-0.8,0.9-1c0.4-0.2,0.9-0.4,1.4-0.4h0.5v1h-0.6c-0.4,0-0.8,0.1-1.2,0.3
		c-0.4,0.2-0.6,0.4-0.8,0.8c-0.2,0.3-0.3,0.7-0.3,1.1v5.4h-0.9L25.3,110z"/>
	<path class="st2" d="M35.3,110h-1.1l4.1-11.2h1.1l4.1,11.2h-1.1l-3.5-9.8h-0.1L35.3,110z M36,105.7h5.5v0.9H36L36,105.7z"/>
	<path class="st2" d="M45.1,110v-8.4H46v1.3h0.1c0.2-0.4,0.5-0.8,0.9-1c0.4-0.2,0.9-0.4,1.4-0.4h0.5v1h-0.6c-0.4,0-0.8,0.1-1.2,0.3
		c-0.4,0.2-0.6,0.4-0.8,0.8c-0.2,0.3-0.3,0.7-0.3,1.1v5.4h-0.9V110z"/>
	<path class="st2" d="M50.8,110V98.8h1v4.4h0.1c0.2-0.3,0.3-0.5,0.5-0.8c0.2-0.3,0.5-0.5,0.8-0.7c0.4-0.2,0.8-0.3,1.3-0.3
		c0.6,0,1.3,0.2,1.8,0.5c0.5,0.4,0.9,0.9,1.2,1.5c0.3,0.7,0.4,1.5,0.4,2.3c0,0.8-0.1,1.6-0.4,2.3c-0.2,0.6-0.7,1.1-1.2,1.5
		c-0.5,0.4-1.2,0.6-1.8,0.5c-0.5,0-0.9-0.1-1.3-0.3c-0.3-0.2-0.6-0.4-0.8-0.7c-0.2-0.2-0.4-0.5-0.5-0.8h-0.1v1.6h-1V110z
		 M51.7,105.8c0,0.6,0.1,1.2,0.3,1.8c0.2,0.5,0.5,0.9,0.9,1.2c0.4,0.3,0.9,0.4,1.4,0.4c0.5,0,1-0.2,1.4-0.5c0.4-0.3,0.7-0.7,0.9-1.2
		c0.2-0.6,0.3-1.2,0.3-1.8c0-0.6-0.1-1.2-0.3-1.7c-0.2-0.5-0.5-0.9-0.9-1.2c-0.4-0.3-0.9-0.5-1.4-0.5c-0.5,0-1,0.1-1.4,0.4
		c-0.4,0.3-0.7,0.7-0.9,1.2C51.8,104.5,51.7,105.2,51.7,105.8z"/>
	<path class="st2" d="M63.4,110.2c-0.7,0-1.4-0.2-2-0.5c-0.6-0.4-1-0.9-1.3-1.5c-0.7-1.4-0.7-3,0-4.4c0.2-0.6,0.7-1.2,1.3-1.5
		c0.5-0.4,1.2-0.6,1.9-0.6c0.4,0,0.9,0.1,1.3,0.2c0.4,0.1,0.8,0.4,1.1,0.8c0.3,0.4,0.6,0.8,0.8,1.3c0.2,0.6,0.3,1.2,0.3,1.8v0.5
		h-6.5v-0.9h5.5c0-0.5-0.1-1-0.3-1.5c-0.2-0.4-0.5-0.8-0.9-1c-0.4-0.2-0.8-0.4-1.3-0.4c-0.5,0-1,0.1-1.4,0.4
		c-0.4,0.3-0.7,0.7-0.9,1.1c-0.2,0.5-0.3,1-0.3,1.5v0.5c0,0.6,0.1,1.2,0.3,1.7c0.2,0.5,0.6,0.9,1,1.2c0.4,0.3,1,0.4,1.5,0.4
		c0.3,0,0.7-0.1,1-0.2c0.3-0.1,0.6-0.3,0.8-0.5c0.2-0.2,0.4-0.4,0.5-0.7l0.9,0.3c-0.1,0.4-0.3,0.7-0.6,1c-0.3,0.3-0.7,0.6-1.1,0.7
		C64.5,110.1,63.9,110.2,63.4,110.2z"/>
	<path class="st2" d="M69.4,100.2c-0.4,0-0.7-0.3-0.7-0.7s0.3-0.7,0.7-0.7c0.4,0,0.7,0.3,0.7,0.7c0,0.2-0.1,0.3-0.2,0.5
		C69.8,100.1,69.6,100.2,69.4,100.2z M68.9,110v-8.4h1v8.4H68.9z"/>
	<path class="st2" d="M75.7,101.6v0.8h-4v-0.8H75.7z M73,99.6h1v8.2c0,0.3,0.1,0.6,0.2,0.8c0.1,0.2,0.3,0.3,0.5,0.4
		c0.2,0.1,0.4,0.1,0.6,0.1h0.3c0.1,0,0.2,0,0.2-0.1l0.2,0.9c-0.1,0-0.2,0.1-0.3,0.1h-0.5c-0.3,0-0.7-0.1-1-0.2
		c-0.3-0.2-0.6-0.4-0.8-0.7c-0.2-0.3-0.3-0.7-0.3-1.1L73,99.6L73,99.6z"/>
	<path class="st2" d="M81,113.3c-0.5,0-1-0.1-1.5-0.2c-0.4-0.1-0.8-0.3-1.1-0.6c-0.3-0.3-0.5-0.6-0.7-0.9l0.8-0.5
		c0.1,0.2,0.3,0.4,0.5,0.6c0.2,0.2,0.5,0.4,0.8,0.5c0.4,0.1,0.8,0.2,1.2,0.2c0.7,0,1.3-0.2,1.8-0.6c0.5-0.4,0.8-1.1,0.7-1.7v-1.9
		h-0.1c-0.1,0.3-0.3,0.6-0.5,0.8c-0.2,0.3-0.5,0.5-0.8,0.6c-0.4,0.2-0.9,0.3-1.3,0.3c-0.6,0-1.3-0.2-1.8-0.5
		c-0.5-0.3-0.9-0.8-1.2-1.4c-0.3-0.7-0.4-1.4-0.4-2.2c0-0.8,0.1-1.5,0.4-2.2c0.3-0.6,0.7-1.1,1.2-1.5c0.5-0.4,1.2-0.6,1.8-0.5
		c0.5,0,0.9,0.1,1.3,0.3c0.3,0.2,0.6,0.4,0.8,0.7c0.2,0.2,0.4,0.5,0.5,0.8h0.1v-1.6h0.9v8.6c0,0.6-0.2,1.2-0.5,1.7
		c-0.3,0.5-0.7,0.8-1.2,1C82.1,113.2,81.6,113.3,81,113.3z M81,109c0.5,0,1-0.1,1.4-0.4c0.4-0.3,0.7-0.7,0.9-1.1
		c0.2-0.5,0.3-1.1,0.3-1.7c0-0.6-0.1-1.2-0.3-1.7c-0.2-0.5-0.5-0.9-0.9-1.2c-0.4-0.3-0.9-0.4-1.4-0.4c-0.5,0-1,0.2-1.4,0.5
		c-0.4,0.3-0.7,0.7-0.9,1.2c-0.4,1.1-0.4,2.3,0,3.4c0.2,0.5,0.5,0.9,0.9,1.1C80,108.9,80.5,109,81,109z"/>
	<path class="st2" d="M90.4,110.2c-0.7,0-1.4-0.2-2-0.5c-0.6-0.4-1-0.9-1.3-1.5c-0.7-1.4-0.7-3,0-4.4c0.2-0.6,0.7-1.2,1.3-1.5
		c0.5-0.4,1.2-0.6,1.9-0.6c0.4,0,0.9,0.1,1.3,0.2c0.4,0.1,0.8,0.4,1.1,0.8c0.3,0.4,0.6,0.8,0.8,1.3c0.2,0.6,0.3,1.2,0.3,1.8v0.5
		h-6.5v-0.9h5.5c0-0.5-0.1-1-0.3-1.5c-0.2-0.4-0.5-0.8-0.9-1c-0.4-0.2-0.8-0.4-1.3-0.4c-0.5,0-1,0.1-1.4,0.4
		c-0.4,0.3-0.7,0.7-0.9,1.1c-0.2,0.5-0.3,1-0.3,1.5v0.5c0,0.6,0.1,1.2,0.3,1.7c0.2,0.5,0.6,0.9,1,1.2c0.4,0.3,1,0.4,1.5,0.4
		c0.3,0,0.7-0.1,1-0.2c0.3-0.1,0.6-0.3,0.8-0.5c0.2-0.2,0.4-0.4,0.5-0.7l0.9,0.3c-0.1,0.4-0.3,0.7-0.6,1c-0.3,0.3-0.7,0.6-1.1,0.7
		C91.5,110.1,90.9,110.2,90.4,110.2z"/>
	<path class="st2" d="M96.2,110V98.8h1v4.4h0.1c0.2-0.3,0.3-0.5,0.5-0.8c0.2-0.3,0.5-0.5,0.8-0.7c0.4-0.2,0.8-0.3,1.3-0.3
		c0.6,0,1.3,0.2,1.8,0.5c0.5,0.4,0.9,0.9,1.2,1.5c0.3,0.7,0.4,1.5,0.4,2.3c0,0.8-0.1,1.6-0.4,2.3c-0.2,0.6-0.7,1.1-1.2,1.5
		c-0.5,0.4-1.2,0.6-1.8,0.5c-0.5,0-0.9-0.1-1.3-0.3c-0.3-0.2-0.6-0.4-0.8-0.7c-0.2-0.2-0.4-0.5-0.5-0.8h-0.1v1.6h-1V110z
		 M97.1,105.8c0,0.6,0.1,1.2,0.3,1.8c0.2,0.5,0.5,0.9,0.9,1.2c0.4,0.3,0.9,0.4,1.4,0.4c0.5,0,1-0.2,1.4-0.5c0.4-0.3,0.7-0.7,0.9-1.2
		c0.2-0.6,0.3-1.2,0.3-1.8c0-0.6-0.1-1.2-0.3-1.7c-0.2-0.5-0.5-0.9-0.9-1.2c-0.4-0.3-0.9-0.5-1.4-0.5c-0.5,0-1,0.1-1.4,0.4
		c-0.4,0.3-0.7,0.7-0.9,1.2C97.2,104.5,97.1,105.2,97.1,105.8z"/>
	<path class="st2" d="M108.7,110.2c-0.7,0-1.4-0.2-2-0.5c-0.6-0.4-1-0.9-1.3-1.5c-0.7-1.4-0.7-3,0-4.4c0.2-0.6,0.7-1.2,1.3-1.5
		c0.5-0.4,1.2-0.6,1.9-0.6c0.4,0,0.9,0.1,1.3,0.2c0.4,0.1,0.8,0.4,1.1,0.8c0.3,0.4,0.6,0.8,0.8,1.3c0.2,0.6,0.3,1.2,0.3,1.8v0.5
		h-6.5v-0.9h5.5c0-0.5-0.1-1-0.3-1.5c-0.2-0.4-0.5-0.8-0.9-1c-0.4-0.2-0.8-0.4-1.3-0.4c-0.5,0-1,0.1-1.4,0.4
		c-0.4,0.3-0.7,0.7-0.9,1.1c-0.2,0.5-0.3,1-0.3,1.5v0.5c0,0.6,0.1,1.2,0.3,1.7c0.2,0.5,0.6,0.9,1,1.2c0.4,0.3,1,0.4,1.5,0.4
		c0.3,0,0.7-0.1,1-0.2c0.3-0.1,0.6-0.3,0.8-0.5c0.2-0.2,0.4-0.4,0.5-0.7l0.9,0.3c-0.1,0.4-0.3,0.7-0.6,1c-0.3,0.3-0.7,0.6-1.1,0.7
		C109.8,110.1,109.2,110.2,108.7,110.2z"/>
	<path class="st2" d="M114.3,110v-8.4h0.9v1.3h0.1c0.2-0.4,0.5-0.8,0.9-1c0.4-0.3,0.9-0.4,1.4-0.4h0.5v1h-0.6
		c-0.4,0-0.8,0.1-1.2,0.3c-0.3,0.2-0.6,0.5-0.8,0.8c-0.2,0.3-0.3,0.7-0.3,1.1v5.4h-0.9V110z"/>
	<path class="st2" d="M124.6,100.2c-0.4,0-0.7-0.3-0.7-0.7c0-0.4,0.3-0.7,0.7-0.7c0.4,0,0.7,0.3,0.7,0.7c0,0.2-0.1,0.3-0.2,0.5
		C124.9,100.1,124.8,100.2,124.6,100.2z M124.1,110v-8.4h1v8.4H124.1z"/>
	<path class="st2" d="M128.6,104.8v5.2h-1v-8.4h0.9v1.3h0.1c0.2-0.4,0.5-0.8,0.9-1c1.4-0.8,3.2-0.4,4,1c0.2,0.5,0.4,1.1,0.4,1.7v5.4
		h-1v-5.4c0-0.6-0.2-1.2-0.6-1.6c-0.4-0.4-0.9-0.6-1.5-0.6c-0.4,0-0.8,0.1-1.2,0.3c-0.3,0.2-0.6,0.5-0.8,0.8
		C128.7,103.9,128.6,104.4,128.6,104.8z"/>
	<path class="st2" d="M141,110V98.8h3.8c0.6,0,1.2,0.1,1.8,0.4c0.4,0.3,0.8,0.6,1.1,1c0.3,0.4,0.4,1,0.4,1.5c0,0.4-0.1,0.8-0.2,1.2
		c-0.2,0.3-0.4,0.6-0.6,0.8c-0.2,0.2-0.6,0.4-0.9,0.4v0.1c0.4,0,0.7,0.2,1,0.4c0.4,0.2,0.6,0.6,0.8,1c0.2,0.5,0.3,1,0.3,1.5
		c0.1,1.1-0.6,2.1-1.6,2.5c-0.6,0.3-1.3,0.4-2,0.4L141,110z M142,103.9h2.8c0.4,0,0.8-0.1,1.2-0.3c0.3-0.2,0.6-0.5,0.8-0.8
		c0.2-0.3,0.3-0.7,0.3-1.1c0-0.5-0.2-1.1-0.6-1.4c-0.5-0.4-1.1-0.6-1.7-0.6h-2.7v4.2L142,103.9z M142,109.1h3
		c0.7,0.1,1.4-0.2,1.9-0.6c0.4-0.4,0.6-0.9,0.6-1.4c0-0.4-0.1-0.8-0.3-1.2c-0.2-0.4-0.5-0.6-0.9-0.8c-0.4-0.2-0.8-0.3-1.3-0.3h-3
		V109.1z"/>
	<path class="st2" d="M153.1,110.2c-0.5,0-1-0.1-1.4-0.3c-0.4-0.2-0.7-0.5-1-0.9c-0.3-0.4-0.4-0.9-0.4-1.4c0-0.3,0.1-0.7,0.2-1
		c0.2-0.3,0.4-0.5,0.7-0.7c0.3-0.2,0.6-0.3,1-0.4c0.4-0.1,0.9-0.2,1.3-0.2c0.5-0.1,0.9-0.1,1.2-0.2c0.2,0,0.5-0.1,0.7-0.2
		c0.2-0.1,0.3-0.3,0.3-0.5v-0.2c0-0.5-0.2-1-0.5-1.3c-0.4-0.4-1-0.5-1.5-0.5c-0.5,0-1.1,0.1-1.5,0.4c-0.3,0.2-0.6,0.6-0.8,0.9
		l-0.9-0.3c0.2-0.4,0.5-0.8,0.8-1.1c0.3-0.3,0.7-0.5,1.1-0.6c0.4-0.1,0.9-0.2,1.3-0.2c0.3,0,0.7,0,1,0.1c0.3,0.1,0.7,0.2,1,0.4
		c0.3,0.2,0.6,0.5,0.7,0.9c0.2,0.4,0.3,0.9,0.3,1.4v5.7h-1v-1.3h-0.1c-0.1,0.3-0.3,0.5-0.5,0.7c-0.3,0.2-0.6,0.4-0.9,0.6
		C153.8,110.1,153.5,110.2,153.1,110.2z M153.2,109.3c0.5,0,0.9-0.1,1.3-0.3c0.4-0.2,0.7-0.5,0.9-0.9c0.2-0.4,0.3-0.8,0.3-1.3v-1.2
		c-0.1,0.1-0.2,0.1-0.4,0.2c-0.2,0.1-0.4,0.1-0.6,0.1c-0.2,0-0.4,0.1-0.7,0.1s-0.4,0.1-0.6,0.1c-0.4,0-0.8,0.1-1.2,0.3
		c-0.3,0.1-0.6,0.3-0.8,0.5c-0.2,0.2-0.3,0.5-0.3,0.8c0,0.5,0.2,0.9,0.5,1.2C152.1,109.1,152.6,109.3,153.2,109.3z"/>
	<path class="st2" d="M159.6,113.1c-0.2,0-0.4,0-0.5-0.1c-0.2,0-0.3-0.1-0.4-0.1l0.3-0.9c0.3,0.1,0.6,0.1,0.9,0.1
		c0.3,0,0.5-0.1,0.7-0.3c0.2-0.2,0.4-0.6,0.5-0.9l0.3-0.8l-3.1-8.4h1.1l2.5,7.1h0.1l2.5-7.1h1.1l-3.5,9.7c-0.1,0.4-0.3,0.7-0.5,1
		c-0.2,0.3-0.5,0.5-0.8,0.6C160.4,113.1,160,113.1,159.6,113.1z"/>
	<path class="st2" d="M170.4,110.2c-0.7,0-1.4-0.2-2-0.5c-0.6-0.4-1-0.9-1.3-1.5c-0.7-1.4-0.7-3,0-4.4c0.3-0.6,0.7-1.2,1.3-1.5
		c0.5-0.4,1.2-0.6,1.9-0.6c0.4,0,0.9,0.1,1.3,0.2c0.4,0.1,0.8,0.4,1.1,0.8c0.3,0.4,0.6,0.8,0.8,1.3c0.2,0.6,0.3,1.2,0.3,1.8v0.5
		h-6.5v-0.9h5.5c0-0.5-0.1-1-0.3-1.5c-0.2-0.4-0.5-0.8-0.9-1c-0.4-0.2-0.8-0.4-1.3-0.4c-0.5,0-1,0.1-1.4,0.4
		c-0.4,0.3-0.7,0.7-0.9,1.1c-0.2,0.5-0.3,1-0.3,1.5v0.5c0,0.6,0.1,1.2,0.3,1.7c0.2,0.5,0.6,0.9,1,1.2c0.4,0.3,1,0.4,1.5,0.4
		c0.3,0,0.7-0.1,1-0.2c0.3-0.1,0.6-0.3,0.8-0.5c0.2-0.2,0.4-0.4,0.5-0.7l0.9,0.3c-0.1,0.4-0.3,0.7-0.6,1c-0.3,0.3-0.7,0.6-1.1,0.7
		C171.5,110.1,170.9,110.2,170.4,110.2z"/>
	<path class="st2" d="M175.9,110v-8.4h0.9v1.3h0.1c0.2-0.4,0.5-0.8,0.9-1c0.4-0.3,0.9-0.4,1.4-0.4h0.5v1h-0.6
		c-0.4,0-0.8,0.1-1.2,0.3c-0.3,0.2-0.6,0.5-0.8,0.8c-0.2,0.3-0.3,0.7-0.3,1.1v5.4h-0.9V110z"/>
	<path class="st2" d="M182.3,104.8v5.2h-1v-8.4h0.9v1.3h0.1c0.2-0.4,0.5-0.8,0.9-1c1.4-0.8,3.2-0.4,4,1c0.2,0.5,0.4,1.1,0.4,1.7v5.4
		h-1v-5.4c0-0.6-0.2-1.2-0.6-1.6c-0.4-0.4-0.9-0.6-1.5-0.6c-0.4,0-0.8,0.1-1.2,0.3c-0.3,0.2-0.6,0.5-0.8,0.8
		C182.4,103.9,182.3,104.4,182.3,104.8z"/>
</g>
<path class="st2" d="M137.4,10l-2.1,5.1l0,0l-23.4,56l-0.2,0.2l-2.6,6.2h6.9l12.5-30.1h17.8l7.6,17.9l3.4-8.2L139.7,15l0,0l-2.1-5.1
	 M131.3,41.2l6.3-14.9l6.2,14.9H131.3z"/>
<path class="st3" d="M150.3,50.9"/>
<path class="st3" d="M118.7,50.9"/>
<path class="st3" d="M153.7,69.1"/>
<path class="st3" d="M142.3,39.7"/>
<path class="st3" d="M136.1,66.6"/>
<path class="st3" d="M125.7,36.8"/>
<path class="st3" d="M150.1,53.7"/>
<path class="st3" d="M117.3,53.7"/>
<path class="st2" d="M153.7,77.6h4.7L171,47.5h17.9l4.5,10.8c1.2,3,3.1,7.4,5.4,12.8c0.9,2.2,1.8,4.3,2.7,6.4h7.1
	c-2-4-3.8-8.1-5.3-12.3l-10.7-25.5l-3.5-8.3l-5.9-14.1l-3.1-7.5h-0.3l-2.1,5.2l-23.4,56c0,0.1-0.1,0.1-0.1,0.2l-2.6,6.2L153.7,77.6
	L153.7,77.6z M180,26.1l6.4,15.1h-12.6L180,26.1z"/>
<circle class="st0" cx="41.3" cy="70.7" r="6.8"/>
<circle class="st1" cx="70.5" cy="20.3" r="6.8"/>
<circle class="st4" cx="13.5" cy="19" r="6.8"/>
<g>
	<path class="st4" d="M17.6,50.5c2.3,6.3,6.7,12,13,15.7c0.2,0.1,0.4,0.2,0.6,0.3v-0.1c-2.2-2.6-3.9-5.5-5.1-8.5
		C22.9,56,19.9,53.3,17.6,50.5z"/>
	<path class="st4" d="M20.1,24.6c-2.7,4.5-4,9.4-4.2,14.2c2.1,3.1,4.9,6.1,7.9,8.3c-0.2-6,1.2-12.1,4.4-17.5
		c6.8-11.7,20.2-18,33.6-15.5V14C47.3,5.4,28.6,10.2,20.1,24.6z"/>
</g>
</svg>
